<svg width="953" height="239" viewBox="0 0 953 239" fill="none" xmlns="http://www.w3.org/2000/svg">
<mask id="path-1-inside-1_2005_84" fill="white">
<path d="M21.9668 21.9668C51.2561 -7.32244 98.7429 -7.32232 128.032 21.9668L132.452 26.3867L136.763 22.0762C166.052 -7.21315 213.54 -7.21315 242.829 22.0762C272.118 51.3655 272.118 98.8533 242.829 128.143L132.609 238.361L132.343 238.095L132.187 238.252L21.9668 128.033C-7.32252 98.7439 -7.32252 51.2561 21.9668 21.9668Z"/>
</mask>
<path d="M21.9668 21.9668L-0.660613 -0.660627L-0.66062 -0.66062L21.9668 21.9668ZM128.032 21.9668L150.66 -0.66062L150.66 -0.660703L128.032 21.9668ZM132.452 26.3867L109.825 49.0141L132.452 71.6416L155.08 49.0141L132.452 26.3867ZM242.829 22.0762L265.457 -0.551172L265.457 -0.551245L242.829 22.0762ZM242.829 128.143L265.456 150.77L265.457 150.77L242.829 128.143ZM132.609 238.361L109.982 260.989L132.609 283.616L155.237 260.989L132.609 238.361ZM132.343 238.095L154.97 215.467L132.272 192.769L109.645 215.538L132.343 238.095ZM132.187 238.252L109.559 260.879L132.257 283.577L154.884 260.809L132.187 238.252ZM21.9668 128.033L-0.66062 150.661L-0.66052 150.661L21.9668 128.033ZM21.9668 21.9668L44.5942 44.5942C61.3866 27.8018 88.6122 27.8018 105.405 44.5943L128.032 21.9668L150.66 -0.660703C108.874 -42.4464 41.1255 -42.4467 -0.660613 -0.660627L21.9668 21.9668ZM128.032 21.9668L105.405 44.5942L109.825 49.0141L132.452 26.3867L155.08 3.7593L150.66 -0.66062L128.032 21.9668ZM132.452 26.3867L155.08 49.0141L159.39 44.7036L136.763 22.0762L114.135 -0.551245L109.825 3.7593L132.452 26.3867ZM136.763 22.0762L159.39 44.7036C176.183 27.911 203.409 27.911 220.202 44.7036L242.829 22.0762L265.457 -0.551245C223.67 -42.3373 155.921 -42.3373 114.135 -0.551245L136.763 22.0762ZM242.829 22.0762L220.202 44.7035C236.994 61.4962 236.994 88.7227 220.202 105.515L242.829 128.143L265.457 150.77C307.243 108.984 307.242 41.2349 265.457 -0.551172L242.829 22.0762ZM242.829 128.143L220.202 105.515L109.982 215.734L132.609 238.361L155.237 260.989L265.456 150.77L242.829 128.143ZM132.609 238.361L155.237 215.734L154.97 215.467L132.343 238.095L109.715 260.722L109.982 260.989L132.609 238.361ZM132.343 238.095L109.645 215.538L109.489 215.695L132.187 238.252L154.884 260.809L155.041 260.652L132.343 238.095ZM132.187 238.252L154.814 215.624L44.5941 105.406L21.9668 128.033L-0.66052 150.661L109.559 260.879L132.187 238.252ZM21.9668 128.033L44.5942 105.406C27.8017 88.6132 27.8017 61.3868 44.5942 44.5942L21.9668 21.9668L-0.66062 -0.66062C-42.4467 41.1255 -42.4467 108.875 -0.66062 150.661L21.9668 128.033Z" fill="#E7479D" mask="url(#path-1-inside-1_2005_84)"/>
<path d="M148.43 33.743C171.276 10.8976 208.316 10.8977 231.161 33.743C254.007 56.5887 254.007 93.6297 231.161 116.475L132.609 215.026L49.8772 132.295L148.43 33.743Z" stroke="url(#paint0_linear_2005_84)" stroke-width="33"/>
<path d="M585.341 49.492C579.325 49.492 574.719 45.45 574.719 39.246C574.719 33.042 579.137 29 585.341 29C591.451 29 595.869 33.042 595.869 39.246C595.869 45.45 591.263 49.492 585.341 49.492ZM594.271 102.884C594.271 115.668 587.691 124.598 573.873 124.598C569.361 124.598 566.635 124.41 563.815 123.564L565.037 108.524C566.635 108.9 567.669 109.088 569.737 109.088C574.437 109.088 576.411 107.02 576.411 102.132V52.5H594.271V102.884Z" fill="#E6479E"/>
<path d="M548.923 72.71C548.923 70.548 546.103 69.514 540.839 69.514C534.634 69.514 528.713 71.3 523.919 73.462L522.697 55.602C527.209 53.252 534.258 51.184 542.624 51.184C559.638 51.184 567.253 58.892 567.253 74.214V104.858H548.923V99.406C545.068 103.824 540.838 106.174 533.788 106.174C525.328 106.174 519.312 101.756 519.312 93.108C519.312 81.546 529.276 78.444 539.24 76.752C543.188 76.094 544.974 75.624 546.76 75.06C548.452 74.496 548.923 73.838 548.923 72.71ZM548.923 83.99C547.888 84.554 546.291 85.306 544.223 85.87C540.651 86.81 538.113 87.656 538.113 91.134C538.113 93.766 540.181 94.894 543.001 94.894C545.727 94.894 547.795 93.39 548.923 91.134V83.99Z" fill="#E6479E"/>
<path d="M462.464 104.858V52.5H480.042V58.422H480.418C483.802 54.004 488.22 51.184 495.364 51.184C507.302 51.184 514.164 59.456 514.164 72.146V104.858H496.304V79.854C496.304 73.932 493.86 69.984 488.22 69.984C482.768 69.984 480.324 73.932 480.324 79.76V104.858H462.464Z" fill="#E6479E"/>
<path d="M413.39 104.858V91.228L433.976 69.42H414.424V52.5H455.69V68.48L435.104 89.348H456.63V104.858H413.39Z" fill="#E6479E"/>
<path d="M353.722 78.726C353.722 62.84 365.284 51.184 381.734 51.184C398.184 51.184 409.652 62.84 409.652 78.726C409.652 94.612 398.184 106.174 381.734 106.174C365.284 106.174 353.722 94.612 353.722 78.726ZM381.734 89.724C386.716 89.724 390.852 85.964 390.852 79.76C390.852 73.932 386.998 69.514 381.734 69.514C376.376 69.514 372.522 73.932 372.522 79.76C372.522 85.964 376.658 89.724 381.734 89.724Z" fill="#E6479E"/>
<path d="M319.884 87.844H316.5V104.858H297.7V37.178H319.226C337.18 37.178 349.964 44.886 349.964 62.276C349.964 79.572 337.838 87.844 319.884 87.844ZM320.824 56.448H316.5V71.394H320.824C327.028 71.394 330.694 69.044 330.694 63.874C330.694 58.704 326.934 56.448 320.824 56.448Z" fill="#E6479E"/>
<path d="M934.876 190.716V119.276H952.736V190.716H934.876Z" fill="#9834E5"/>
<path d="M871.903 208.576V138.358H889.481V142.87H889.857C892.489 139.392 897.941 137.042 904.239 137.042C917.869 137.042 928.773 146.724 928.773 164.584C928.773 182.538 917.211 192.032 904.239 192.032C898.223 192.032 892.865 189.588 890.139 184.794H889.763V208.576H871.903ZM900.103 175.582C905.649 175.582 909.973 171.164 909.973 165.336C909.973 159.414 905.649 155.372 900.103 155.372C894.557 155.372 890.233 158.944 890.233 165.336C890.233 171.54 894.557 175.582 900.103 175.582Z" fill="#9834E5"/>
<path d="M854.411 192.032C848.395 192.032 843.413 187.05 843.413 181.034C843.413 175.112 848.395 170.036 854.411 170.036C860.427 170.036 865.409 175.112 865.409 181.034C865.409 187.05 860.427 192.032 854.411 192.032Z" fill="#9834E5"/>
<path d="M837.708 189.964C833.196 191.468 827.933 192.032 822.293 192.032C802.835 192.032 790.333 182.914 790.333 164.396C790.333 148.604 800.767 137.042 816.747 137.042C832.727 137.042 841.093 149.262 841.093 164.396C841.093 166.746 840.998 169.284 840.622 171.352H810.448C812.798 176.24 818.063 177.462 825.677 177.462C829.813 177.462 833.009 176.898 836.299 175.864L837.708 189.964ZM817.122 153.492C813.832 153.492 810.448 155.184 809.414 160.73H824.361C824.173 156.688 821.164 153.492 817.122 153.492Z" fill="#9834E5"/>
<path d="M733.014 190.716V138.358H750.592V144.28H750.968C754.352 139.862 758.77 137.042 765.914 137.042C777.852 137.042 784.714 145.314 784.714 158.004V190.716H766.854V165.712C766.854 159.79 764.41 155.842 758.77 155.842C753.318 155.842 750.874 159.79 750.874 165.618V190.716H733.014Z" fill="#9834E5"/>
<path d="M686.594 209.892C681.518 209.892 678.134 209.422 675.126 208.67L676.348 194.194C678.322 194.664 679.732 195.04 682.458 195.04C686.782 195.04 689.132 194.194 689.696 192.126L689.884 191.468L669.486 138.358H690.918L699.754 174.83L708.402 138.358H728.424L709.342 190.716C705.676 200.68 699.848 209.892 686.594 209.892Z" fill="#9834E5"/>
<path d="M624.547 190.716V177.086L645.133 155.278H625.581V138.358H666.847V154.338L646.261 175.206H667.787V190.716H624.547Z" fill="#9834E5"/>
<path d="M618.619 173.138L619.841 189.118C616.551 190.81 611.569 192.032 606.681 192.032C589.385 192.032 577.823 182.35 577.823 164.584C577.823 148.04 588.539 137.042 605.929 137.042C610.911 137.042 616.269 138.17 619.841 139.674L618.431 157.534C615.517 156.124 612.227 155.372 608.373 155.372C600.853 155.372 596.623 159.508 596.623 165.9C596.623 172.01 600.947 175.582 608.091 175.582C611.381 175.582 615.329 174.736 618.619 173.138Z" fill="#9834E5"/>
<path d="M541.019 190.716L532.089 159.414L523.911 190.716H502.761L488.097 138.358H508.777L515.639 172.01L523.253 138.358H542.523L550.607 172.198L556.905 138.358H576.645L562.169 190.716H541.019Z" fill="#9834E5"/>
<path d="M482.638 189.964C478.126 191.468 472.862 192.032 467.222 192.032C447.764 192.032 435.262 182.914 435.262 164.396C435.262 148.604 445.696 137.042 461.676 137.042C477.656 137.042 486.022 149.262 486.022 164.396C486.022 166.746 485.928 169.284 485.552 171.352H455.378C457.728 176.24 462.992 177.462 470.606 177.462C474.742 177.462 477.938 176.898 481.228 175.864L482.638 189.964ZM462.052 153.492C458.762 153.492 455.378 155.184 454.344 160.73H469.29C469.102 156.688 466.094 153.492 462.052 153.492Z" fill="#9834E5"/>
<path d="M420.196 135.35C414.18 135.35 409.574 131.308 409.574 125.104C409.574 118.9 413.992 114.858 420.196 114.858C426.306 114.858 430.724 118.9 430.724 125.104C430.724 131.308 426.118 135.35 420.196 135.35ZM411.266 190.716V138.358H429.126V190.716H411.266Z" fill="#9834E5"/>
<path d="M362.192 190.716V177.086L382.778 155.278H363.226V138.358H404.492V154.338L383.906 175.206H405.432V190.716H362.192Z" fill="#9834E5"/>
<path d="M298 190.716V123.036H320.56C347.444 123.036 357.972 138.17 357.972 157.064C357.972 175.3 345.47 190.716 319.432 190.716H298ZM320.654 142.306H316.8V173.326H320.278C332.78 173.326 338.702 166.934 338.702 157.534C338.702 148.228 332.498 142.306 320.654 142.306Z" fill="#9834E5"/>
<defs>
<linearGradient id="paint0_linear_2005_84" x1="242.829" y1="22.0762" x2="79.5762" y2="185.329" gradientUnits="userSpaceOnUse">
<stop stop-color="#9834E6"/>
<stop offset="1" stop-color="#CF41B3"/>
</linearGradient>
</defs>
</svg>
